<svg width="19" height="15" viewBox="0 0 19 15" fill="none" xmlns="http://www.w3.org/2000/svg">
<path d="M18.7166 1.76471C18.0372 2.07353 17.3049 2.27647 16.546 2.37353C17.3225 1.90588 17.9225 1.16471 18.2049 0.273529C17.4725 0.714706 16.6608 1.02353 15.8049 1.2C15.1078 0.441177 14.1284 0 13.0166 0C10.9431 0 9.24899 1.69412 9.24899 3.78529C9.24899 4.08529 9.28428 4.37647 9.34605 4.65C6.20487 4.49118 3.40781 2.98235 1.54605 0.697059C1.21958 1.25294 1.03428 1.90588 1.03428 2.59412C1.03428 3.90882 1.69605 5.07353 2.71958 5.73529C2.09311 5.73529 1.51075 5.55882 0.998989 5.29412V5.32059C0.998989 7.15588 2.30487 8.69118 4.03428 9.03529C3.47904 9.18724 2.89613 9.20839 2.33134 9.09706C2.571 9.84925 3.04035 10.5074 3.67342 10.9791C4.30649 11.4507 5.07144 11.7121 5.86075 11.7265C4.52278 12.7857 2.86428 13.3582 1.15781 13.35C0.857813 13.35 0.557813 13.3324 0.257812 13.2971C1.93428 14.3735 3.9284 15 6.0637 15C13.0166 15 16.8372 9.22941 16.8372 4.22647C16.8372 4.05882 16.8372 3.9 16.8284 3.73235C17.5696 3.20294 18.2049 2.53235 18.7166 1.76471Z" fill="#EE769A"/>
</svg>
