<svg width="16" height="15" viewBox="0 0 16 15" fill="none" xmlns="http://www.w3.org/2000/svg">
<path d="M5.06484 0H11.3648C13.7648 0 15.7148 1.95 15.7148 4.35V10.65C15.7148 11.8037 15.2565 12.9101 14.4408 13.7259C13.625 14.5417 12.5185 15 11.3648 15H5.06484C2.66484 15 0.714844 13.05 0.714844 10.65V4.35C0.714844 3.19631 1.17315 2.08987 1.98893 1.27409C2.80471 0.458302 3.91115 0 5.06484 0ZM4.91484 1.5C4.19876 1.5 3.512 1.78446 3.00566 2.29081C2.49931 2.79716 2.21484 3.48392 2.21484 4.2V10.8C2.21484 12.2925 3.42234 13.5 4.91484 13.5H11.5148C12.2309 13.5 12.9177 13.2155 13.424 12.7092C13.9304 12.2028 14.2148 11.5161 14.2148 10.8V4.2C14.2148 2.7075 13.0073 1.5 11.5148 1.5H4.91484ZM12.1523 2.625C12.401 2.625 12.6394 2.72377 12.8153 2.89959C12.9911 3.0754 13.0898 3.31386 13.0898 3.5625C13.0898 3.81114 12.9911 4.0496 12.8153 4.22541C12.6394 4.40123 12.401 4.5 12.1523 4.5C11.9037 4.5 11.6652 4.40123 11.4894 4.22541C11.3136 4.0496 11.2148 3.81114 11.2148 3.5625C11.2148 3.31386 11.3136 3.0754 11.4894 2.89959C11.6652 2.72377 11.9037 2.625 12.1523 2.625ZM8.21484 3.75C9.20941 3.75 10.1632 4.14509 10.8665 4.84835C11.5698 5.55161 11.9648 6.50544 11.9648 7.5C11.9648 8.49456 11.5698 9.44839 10.8665 10.1517C10.1632 10.8549 9.20941 11.25 8.21484 11.25C7.22028 11.25 6.26645 10.8549 5.56319 10.1517C4.85993 9.44839 4.46484 8.49456 4.46484 7.5C4.46484 6.50544 4.85993 5.55161 5.56319 4.84835C6.26645 4.14509 7.22028 3.75 8.21484 3.75ZM8.21484 5.25C7.61811 5.25 7.04581 5.48705 6.62385 5.90901C6.2019 6.33097 5.96484 6.90326 5.96484 7.5C5.96484 8.09674 6.2019 8.66903 6.62385 9.09099C7.04581 9.51295 7.61811 9.75 8.21484 9.75C8.81158 9.75 9.38388 9.51295 9.80583 9.09099C10.2278 8.66903 10.4648 8.09674 10.4648 7.5C10.4648 6.90326 10.2278 6.33097 9.80583 5.90901C9.38388 5.48705 8.81158 5.25 8.21484 5.25Z" fill="#EE769A"/>
</svg>
