<svg width="23" height="15" viewBox="0 0 23 15" fill="none" xmlns="http://www.w3.org/2000/svg">
<path d="M9.28627 10.7143L14.847 7.5L9.28627 4.28571V10.7143ZM21.672 2.325C21.8113 2.82857 21.9077 3.50357 21.972 4.36071C22.047 5.21786 22.0791 5.95714 22.0791 6.6L22.1434 7.5C22.1434 9.84643 21.972 11.5714 21.672 12.675C21.4041 13.6393 20.7827 14.2607 19.8184 14.5286C19.3148 14.6679 18.3934 14.7643 16.9791 14.8286C15.5863 14.9036 14.3113 14.9357 13.1327 14.9357L11.4291 15C6.93984 15 4.14342 14.8286 3.03984 14.5286C2.07556 14.2607 1.45413 13.6393 1.18627 12.675C1.04699 12.1714 0.950558 11.4964 0.886272 10.6393C0.811272 9.78214 0.779129 9.04286 0.779129 8.4L0.714844 7.5C0.714844 5.15357 0.886272 3.42857 1.18627 2.325C1.45413 1.36071 2.07556 0.739286 3.03984 0.471429C3.54342 0.332143 4.46484 0.235714 5.87913 0.171428C7.27199 0.0964284 8.54699 0.0642857 9.72556 0.0642857L11.4291 0C15.9184 0 18.7148 0.171429 19.8184 0.471429C20.7827 0.739286 21.4041 1.36071 21.672 2.325Z" fill="#EE769A"/>
</svg>
