<svg width="13" height="15" viewBox="0 0 13 15" fill="none" xmlns="http://www.w3.org/2000/svg">
<path d="M10.6741 14.3982C9.85754 15.1898 8.96598 15.0648 8.10776 14.6898C7.19954 14.3065 6.36631 14.2899 5.4081 14.6898C4.20825 15.2064 3.575 15.0564 2.85842 14.3982C-1.20773 10.207 -0.607809 3.82452 4.00828 3.59121C5.13313 3.64954 5.91637 4.2078 6.57462 4.2578C7.55783 4.05782 8.49938 3.48289 9.54924 3.55788C10.8074 3.65787 11.7573 4.15781 12.3822 5.05769C9.78255 6.61583 10.3991 10.0404 12.7822 10.9986C12.3072 12.2485 11.6906 13.49 10.6658 14.4065L10.6741 14.3982ZM6.4913 3.54122C6.36631 1.68312 7.87446 0.149981 9.60757 0C9.84921 2.14973 7.65781 3.74953 6.4913 3.54122Z" fill="#EE769A"/>
</svg>
