<svg width="16" height="15" viewBox="0 0 16 15" fill="none" xmlns="http://www.w3.org/2000/svg">
<path d="M12.7062 6.675C10.3062 5.25 6.29375 5.1 4.00625 5.8125C3.63125 5.925 3.25625 5.7 3.14375 5.3625C3.03125 4.9875 3.25625 4.6125 3.59375 4.5C6.25625 3.7125 10.6438 3.8625 13.4188 5.5125C13.7563 5.7 13.8688 6.15 13.6813 6.4875C13.4938 6.75 13.0437 6.8625 12.7062 6.675ZM12.6312 8.775C12.4437 9.0375 12.1062 9.15 11.8438 8.9625C9.81875 7.725 6.74375 7.35 4.38125 8.1C4.08125 8.175 3.74375 8.025 3.66875 7.725C3.59375 7.425 3.74375 7.0875 4.04375 7.0125C6.78125 6.1875 10.1562 6.6 12.4813 8.025C12.7063 8.1375 12.8187 8.5125 12.6312 8.775ZM11.7313 10.8375C11.5813 11.0625 11.3188 11.1375 11.0938 10.9875C9.33125 9.9 7.11875 9.675 4.49375 10.275C4.23125 10.35 4.00625 10.1625 3.93125 9.9375C3.85625 9.675 4.04375 9.45 4.26875 9.375C7.11875 8.7375 9.59375 9 11.5438 10.2C11.8063 10.3125 11.8438 10.6125 11.7313 10.8375ZM8.28125 0C7.29634 0 6.32107 0.193993 5.41112 0.570904C4.50118 0.947814 3.67439 1.50026 2.97795 2.1967C1.57143 3.60322 0.78125 5.51088 0.78125 7.5C0.78125 9.48912 1.57143 11.3968 2.97795 12.8033C3.67439 13.4997 4.50118 14.0522 5.41112 14.4291C6.32107 14.806 7.29634 15 8.28125 15C10.2704 15 12.178 14.2098 13.5846 12.8033C14.9911 11.3968 15.7812 9.48912 15.7812 7.5C15.7812 6.51509 15.5873 5.53982 15.2103 4.62987C14.8334 3.71993 14.281 2.89314 13.5846 2.1967C12.8881 1.50026 12.0613 0.947814 11.1514 0.570904C10.2414 0.193993 9.26616 0 8.28125 0Z" fill="#EE769A"/>
</svg>
